<?xml version="1.0" encoding="utf-8"?>
<!-- Generator: Adobe Illustrator 20.0.0, SVG Export Plug-In . SVG Version: 6.00 Build 0)  -->
<svg version="1.1" id="Ebene_3" xmlns="http://www.w3.org/2000/svg" xmlns:xlink="http://www.w3.org/1999/xlink" x="0px" y="0px"
	 viewBox="0 0 92.2 106.2" style="enable-background:new 0 0 92.2 106.2;" xml:space="preserve">
<style type="text/css">
	.st0{fill:#BE1622;}
</style>
<g>
	<path class="st0" d="M12.5,10v84.7h13.8V10H12.5z M22.5,19.5c-0.2,0.4-0.4,0.7-0.7,1s-0.6,0.5-1,0.7c-0.4,0.2-0.8,0.2-1.2,0.2h-1.5
		v2.8h-2v-9.2h3.5c0.4,0,0.8,0.1,1.2,0.2c0.4,0.2,0.7,0.4,1,0.7s0.5,0.6,0.7,1c0.2,0.4,0.2,0.8,0.2,1.2S22.7,19.1,22.5,19.5z"/>
	<path class="st0" d="M19.6,17h-1.5v2.4h1.5c0.3,0,0.6-0.1,0.9-0.3s0.3-0.5,0.3-0.9s-0.1-0.6-0.3-0.9S19.9,17,19.6,17z"/>
	<polygon class="st0" points="35.6,22.2 38.4,22.2 37,19.4 	"/>
	<path class="st0" d="M30.2,10v74.2h13.8V10H30.2z M32.4,24.2l4.6-9.2l4.6,9.2H32.4z"/>
	<path class="st0" d="M47.8,10v63.8h13.8V10H47.8z M58.9,24.2h-2v-4.1h-3.9v4.1h-2v-9.2h2v3.1H57v-3.1h2V24.2z"/>
	<path class="st0" d="M65.5,10v53.4h13.8V10H65.5z M76.1,24.2l-5.5-4.8v4.8h-2v-9.2l5.5,5.1v-5.1h2V24.2z"/>
</g>
</svg>
